<?xml version="1.0" encoding="iso-8859-1"?>
<!-- Generator: Adobe Illustrator 19.0.0, SVG Export Plug-In . SVG Version: 6.00 Build 0)  -->
<svg version="1.1" id="Layer_1" xmlns="http://www.w3.org/2000/svg" xmlns:xlink="http://www.w3.org/1999/xlink" x="0px" y="0px"
	 viewBox="0 0 505 505" style="enable-background:new 0 0 505 505;" xml:space="preserve">
<circle style="fill:#84DBFF;" cx="252.5" cy="252.5" r="252.5"/>
<path style="fill:#54C0EB;" d="M48.6,401.4C94.6,464.2,168.8,505,252.5,505s157.9-40.8,203.9-103.6H48.6z"/>
<path style="fill:#EDF2F2;" d="M259.6,324.8H103.5c-5,0-9,4.1-9,9.1v24.3h174.2v-24.3C268.6,328.9,264.6,324.8,259.6,324.8z"/>
<path style="fill:#324A5E;" d="M276.6,358.2h-190c-4.9,0-8.9,4-8.9,8.9v34.3h207.8v-34.3C285.5,362.2,281.5,358.2,276.6,358.2z"/>
<rect x="234.609" y="210.526" transform="matrix(-0.9581 -0.2866 0.2866 -0.9581 430.6018 507.0771)" style="fill:#2B3B4E;" width="35.602" height="23.001"/>
<path style="fill:#FFFFFF;" d="M418.9,240.7l-142.9-37c-3.6-0.9-7.2,1.1-8.3,4.7l-10,33.5c-1.1,3.5,0.9,7.3,4.4,8.5l139.8,47.5
	c16.7,5.7,34.6-3.1,39.4-19.4C446.1,262.3,436,245.1,418.9,240.7z"/>
<rect x="151.594" y="160.523" transform="matrix(-0.9581 -0.2866 0.2866 -0.9581 322.0511 456.6859)" style="fill:#E6E9EE;" width="85.704" height="88.504"/>
<g>
	<path style="fill:#FFFFFF;" d="M259.3,149.2l-88.6-26.5c-3.8-1.1-7.8,1-9,4.8l-3.9,13c-1.1,3.8,1,7.8,4.8,9l88.6,26.5
		c3.8,1.1,7.8-1,9-4.8l3.9-13C265.3,154.4,263.1,150.4,259.3,149.2z"/>
	<path style="fill:#FFFFFF;" d="M226,260.4l-88.6-26.5c-3.8-1.1-7.8,1-9,4.8l-3.9,13c-1.1,3.8,1,7.8,4.8,9l88.6,26.5
		c3.8,1.1,7.8-1,9-4.8l3.9-13C232,265.5,229.9,261.5,226,260.4z"/>
</g>
<g>
</g>
<g>
</g>
<g>
</g>
<g>
</g>
<g>
</g>
<g>
</g>
<g>
</g>
<g>
</g>
<g>
</g>
<g>
</g>
<g>
</g>
<g>
</g>
<g>
</g>
<g>
</g>
<g>
</g>
</svg>
