<?xml version="1.0" encoding="iso-8859-1"?>
<!-- Generator: Adobe Illustrator 19.0.0, SVG Export Plug-In . SVG Version: 6.00 Build 0)  -->
<svg version="1.1" id="Layer_1" xmlns="http://www.w3.org/2000/svg" xmlns:xlink="http://www.w3.org/1999/xlink" x="0px" y="0px"
	 viewBox="0 0 508.033 508.033" style="enable-background:new 0 0 508.033 508.033;" xml:space="preserve">
<path style="fill:#FFC10D;" d="M203.139,113.633l-86.7-23.6l-7.3,26.9l48.8,13.3c7.5,2.1,12,9.8,9.9,17.3
	c-2.1,7.6-9.7,11.8-17.3,9.9l-48.8-13.3l-6.2,22.8l23.9,6.5c7.5,2.1,12,9.8,9.9,17.3c-1.8,7.7-11,12.2-17.3,9.9l-24-6.5l-11.3,41.3
	l86.7,23.6L203.139,113.633z"/>
<path style="fill:#56ACE0;" d="M471.139,252.733l-257.6-70.2l-6.2,22.6l257.7,70.1c6.2,1.7,12.7-2.1,14.4-8.2
	C481.039,260.833,477.439,254.433,471.139,252.733z"/>
<g>
	<polygon style="fill:#FFFFFF;" points="248.439,72.433 98.339,31.533 92.139,54.133 242.239,95.033 	"/>
	
		<rect x="31.799" y="274.008" transform="matrix(0.9648 0.2631 -0.2631 0.9648 79.0287 -18.77)" style="fill:#FFFFFF;" width="155.605" height="23.401"/>
</g>
<path style="fill:#56ACE0;" d="M42.339,436.733c-7.8,0-14.1,6.3-14.1,14.1v29h248.6v-29c0-7.8-6.3-14.1-14.1-14.1H42.339z"/>
<g>
	<path style="fill:#194F82;" d="M478.639,225.433l-257.6-70.2l9.3-34.2l18.1,4.9c6.7,2.2,14.1-1.1,17.3-9.9l13.6-49.8
		c1.9-9.5-3.5-15.3-9.9-17.3l-177.3-48.4c-7-2-14.6,1.7-17.3,9.9l-13.6,49.8c-2.3,6.6,2.4,15.2,9.9,17.3l18.1,4.9l-39.7,145.5
		l-18.1-4.9c-7.5-2-15.3,2.4-17.3,9.9l-13.6,49.8c-2.1,8.3,2.9,15.5,9.9,17.3l177.3,48.4c7.5,2.1,15.1-2.2,17.3-9.9l13.6-49.8
		c2.3-7.8-3.1-15.5-9.9-17.3l-18.1-4.9l9.3-34.2l257.6,70.2c21.5,5.9,43.7-7.3,49-28
		C512.439,253.233,499.839,231.233,478.639,225.433z M98.339,31.533l150.1,40.9l-6.2,22.6l-150.1-40.9L98.339,31.533z
		 M181.539,317.433l-150-40.9l6.2-22.6l150.1,40.9L181.539,317.433z M163.439,259.033l-86.7-23.6l11.3-41.3l23.9,6.5
		c6.3,2.3,15.5-2.2,17.3-9.9c2-7.5-2.4-15.3-9.9-17.3l-23.9-6.5l6.2-22.8l48.8,13.3c7.6,1.9,15.2-2.3,17.3-9.9
		c2-7.5-2.4-15.3-9.9-17.3l-48.8-13.3l7.3-26.9l86.7,23.6L163.439,259.033z M479.339,267.033c-1.7,6.1-8.2,9.9-14.4,8.2l-257.5-70.2
		l6.2-22.6l257.6,70.2C477.439,254.433,481.039,260.833,479.339,267.033z"/>
	<path style="fill:#194F82;" d="M262.739,408.533h-220.4c-23.3,0-42.3,19-42.3,42.3v43.1c0,7.8,6.3,14.1,14.1,14.1h276.8
		c7.8,0,14.1-6.3,14.1-14.1v-43.1C305.039,427.533,286.039,408.533,262.739,408.533z M276.839,479.833h-248.6v-29
		c0-7.8,6.3-14.1,14.1-14.1h220.3c7.8,0,14.1,6.3,14.1,14.1v29H276.839z"/>
</g>
<g>
</g>
<g>
</g>
<g>
</g>
<g>
</g>
<g>
</g>
<g>
</g>
<g>
</g>
<g>
</g>
<g>
</g>
<g>
</g>
<g>
</g>
<g>
</g>
<g>
</g>
<g>
</g>
<g>
</g>
</svg>
