<?xml version="1.0" ?><!DOCTYPE svg  PUBLIC '-//W3C//DTD SVG 1.1//EN'  'http://www.w3.org/Graphics/SVG/1.1/DTD/svg11.dtd'><svg width="32px" height="32px" viewBox="0 0 32 32" style="fill-rule:evenodd;clip-rule:evenodd;stroke-linejoin:round;stroke-miterlimit:1.41421;" version="1.1" xml:space="preserve" xmlns="http://www.w3.org/2000/svg" xmlns:serif="http://www.serif.com/" xmlns:xlink="http://www.w3.org/1999/xlink"><rect height="32" id="ID-Card" style="fill:none;" width="32" x="0" y="0"/><path d="M17.061,6c0.002,-0.261 0.107,-0.522 0.292,-0.707c0.162,-0.162 0.381,-0.266 0.609,-0.288c0.033,-0.003 0.066,-0.003 0.098,-0.005c1.651,0 3.302,-0.008 4.953,0c0.541,0.004 1.077,0.238 1.447,0.633c0.341,0.364 0.538,0.861 0.54,1.361c0.011,7.004 0.011,14.008 0,21.012c-0.003,0.643 -0.332,1.276 -0.871,1.645c-0.329,0.225 -0.728,0.347 -1.123,0.349c-4.671,0.007 -9.341,0.007 -14.012,0c-0.471,-0.002 -0.938,-0.175 -1.294,-0.48c-0.436,-0.373 -0.697,-0.938 -0.7,-1.514c-0.011,-7.004 -0.011,-14.008 0,-21.012c0.003,-0.621 0.309,-1.234 0.817,-1.607c0.341,-0.25 0.761,-0.386 1.182,-0.387l4.936,0c0.087,0.004 0.109,0.002 0.195,0.019c0.383,0.077 0.708,0.394 0.785,0.786c0.013,0.064 0.019,0.13 0.019,0.195l2.127,0Z" style="fill:#f2f2f2;fill-rule:nonzero;"/><path d="M16,6l1.061,0c0.002,-0.261 0.107,-0.522 0.292,-0.707c0.162,-0.162 0.381,-0.266 0.609,-0.288c0.033,-0.003 0.066,-0.003 0.098,-0.005c1.651,0 3.302,-0.008 4.953,0c0.541,0.004 1.077,0.238 1.447,0.633c0.341,0.364 0.538,0.861 0.54,1.361c0.011,7.004 0.011,14.008 0,21.012c-0.003,0.643 -0.332,1.276 -0.871,1.645c-0.329,0.225 -0.728,0.347 -1.123,0.349c-2.335,0.004 -4.671,0.005 -7.006,0.005l0,-24.005Z" style="fill:#d9d9d9;fill-rule:nonzero;"/><rect height="14" style="fill:#90caf9;" width="14" x="9" y="7"/><rect height="14" style="fill:#42a5f5;" width="7" x="16" y="7"/><path d="M20.098,24.005c0.032,0.005 0.065,0.008 0.097,0.014c0.385,0.077 0.708,0.394 0.786,0.786c0.064,0.321 -0.042,0.671 -0.274,0.902c-0.139,0.139 -0.319,0.235 -0.512,0.274c-0.086,0.017 -0.108,0.015 -0.195,0.019l-8,0c-0.087,-0.004 -0.109,-0.002 -0.195,-0.019c-0.321,-0.064 -0.603,-0.294 -0.729,-0.598c-0.112,-0.272 -0.098,-0.593 0.042,-0.854c0.154,-0.289 0.456,-0.492 0.784,-0.524c0.033,-0.003 0.065,-0.003 0.098,-0.005l8,0c0.033,0.002 0.065,0.003 0.098,0.005Z" style="fill:#4d4d4d;fill-rule:nonzero;"/><path d="M16,24l4,0c0.033,0.002 0.065,0.003 0.098,0.005c0.032,0.005 0.065,0.008 0.097,0.014c0.385,0.077 0.708,0.394 0.786,0.786c0.064,0.321 -0.042,0.671 -0.274,0.902c-0.139,0.139 -0.319,0.235 -0.512,0.274c-0.086,0.017 -0.108,0.015 -0.195,0.019l-4,0l0,-2Z" style="fill:#262626;fill-rule:nonzero;"/><path d="M18.002,10l-4.004,0c-0.041,-0.001 -0.047,0 -0.09,-0.005c-0.426,-0.043 -0.797,-0.36 -0.888,-0.802c-0.007,-0.035 -0.012,-0.066 -0.015,-0.102c-0.004,-0.04 -0.004,-0.05 -0.005,-0.088l0,-6.006c0.001,-0.038 0.001,-0.048 0.005,-0.088c0.017,-0.167 0.064,-0.296 0.142,-0.424c0.16,-0.264 0.449,-0.449 0.761,-0.48c0.042,-0.004 0.05,-0.004 0.089,-0.005l4.006,0c0.013,0 0.025,0.001 0.038,0.001c0.046,0.003 0.056,0.003 0.102,0.01c0.401,0.062 0.751,0.377 0.837,0.796c0.007,0.035 0.012,0.066 0.015,0.102c0.004,0.04 0.004,0.05 0.005,0.088l0,6.006c-0.001,0.038 -0.001,0.048 -0.005,0.088c-0.011,0.112 -0.036,0.202 -0.075,0.293c-0.116,0.274 -0.361,0.487 -0.629,0.571c-0.065,0.02 -0.131,0.033 -0.199,0.04c-0.043,0.005 -0.049,0.004 -0.09,0.005Z" style="fill:#4d4d4d;"/><path d="M13.997,2l4.006,0c0.013,0 0.025,0.001 0.038,0.001c0.046,0.003 0.056,0.003 0.102,0.01c0.401,0.062 0.751,0.377 0.837,0.796c0.007,0.035 0.012,0.066 0.015,0.102c0.004,0.04 0.004,0.05 0.005,0.088l0,6.006c-0.001,0.038 -0.001,0.048 -0.005,0.088c-0.011,0.112 -0.036,0.202 -0.075,0.293c-0.116,0.274 -0.361,0.487 -0.629,0.571c-0.065,0.02 -0.131,0.033 -0.199,0.04c-0.043,0.005 -0.049,0.004 -0.09,0.005l-2.002,0l0,-8l-2.003,0Z" style="fill:#262626;"/><path d="M10.999,21c-0.001,-0.077 0.003,-0.155 0.006,-0.232c0.044,-0.954 0.368,-1.892 0.922,-2.669c0.417,-0.584 0.962,-1.075 1.582,-1.433c-0.251,-0.376 -0.419,-0.806 -0.481,-1.257c-0.103,-0.753 0.092,-1.543 0.537,-2.161c0.54,-0.749 1.428,-1.226 2.368,-1.247c0.025,-0.001 0.051,-0.001 0.077,-0.001c0.764,0.004 1.527,0.312 2.079,0.848c0.447,0.433 0.754,1.008 0.864,1.622c0.135,0.754 -0.033,1.558 -0.459,2.197c0.17,0.097 0.335,0.205 0.492,0.322c1.066,0.795 1.798,2.025 1.972,3.36c0.028,0.213 0.041,0.429 0.042,0.643l0,0.007l0,0.001l-10.001,0Z" style="fill:#1e88e5;"/><path d="M16,12l0.01,0c0.764,0.004 1.527,0.312 2.079,0.848c0.447,0.433 0.754,1.008 0.864,1.622c0.135,0.754 -0.033,1.558 -0.459,2.197c0.17,0.097 0.335,0.205 0.492,0.322c1.066,0.795 1.798,2.025 1.972,3.36c0.028,0.213 0.041,0.429 0.042,0.643l0,0.007l0,0.001l-5,0l0,-9Z" style="fill:#1976d2;"/></svg>