<?xml version="1.0" ?><!DOCTYPE svg  PUBLIC '-//W3C//DTD SVG 1.1//EN'  'http://www.w3.org/Graphics/SVG/1.1/DTD/svg11.dtd'><svg width="32px" height="32px" viewBox="0 0 32 32" style="fill-rule:evenodd;clip-rule:evenodd;stroke-linejoin:round;stroke-miterlimit:1.41421;" version="1.1" xml:space="preserve" xmlns="http://www.w3.org/2000/svg" xmlns:serif="http://www.serif.com/" xmlns:xlink="http://www.w3.org/1999/xlink"><rect height="32" id="Checklist" style="fill:none;" width="32" x="0" y="0"/><path d="M25.006,2c0.603,0.003 1.195,0.291 1.568,0.766c0.272,0.348 0.424,0.789 0.426,1.228c0.013,8.004 0.013,16.008 0,24.012c-0.003,0.561 -0.251,1.113 -0.667,1.485c-0.36,0.322 -0.841,0.507 -1.327,0.509c-6.004,0.009 -12.008,0.009 -18.012,0c-0.563,-0.003 -1.116,-0.252 -1.489,-0.672c-0.319,-0.359 -0.503,-0.835 -0.505,-1.322c-0.013,-8.004 -0.013,-16.008 0,-24.012c0.003,-0.549 0.242,-1.096 0.648,-1.468c0.363,-0.333 0.851,-0.524 1.346,-0.526c6.004,-0.009 12.008,-0.009 18.012,0Z" style="fill:#f2f2f2;"/><path d="M16,1.993c3.002,0 6.004,0.002 9.006,0.007c0.603,0.003 1.195,0.291 1.568,0.766c0.272,0.348 0.424,0.789 0.426,1.228c0.013,8.004 0.013,16.008 0,24.012c-0.003,0.561 -0.251,1.113 -0.667,1.485c-0.36,0.322 -0.841,0.507 -1.327,0.509c-3.002,0.005 -6.004,0.007 -9.006,0.007l0,-28.014Z" style="fill:#d9d9d9;"/><path d="M11.414,8.414l2.122,-2.121c0.064,-0.059 0.078,-0.076 0.151,-0.124c0.109,-0.073 0.232,-0.124 0.361,-0.15c0.085,-0.017 0.108,-0.015 0.195,-0.019c0.032,0.002 0.065,0.003 0.098,0.005c0.032,0.005 0.065,0.008 0.097,0.014c0.384,0.077 0.708,0.394 0.785,0.786c0.058,0.289 -0.019,0.6 -0.207,0.829c-0.021,0.026 -0.044,0.049 -0.066,0.073l-2.829,2.829c-0.024,0.022 -0.047,0.045 -0.072,0.065c-0.07,0.058 -0.148,0.105 -0.23,0.141c-0.056,0.025 -0.115,0.046 -0.177,0.06c-0.045,0.011 -0.091,0.018 -0.137,0.022c-0.063,0.006 -0.126,0.006 -0.189,0c-0.089,-0.009 -0.176,-0.031 -0.259,-0.064c-0.116,-0.044 -0.224,-0.108 -0.316,-0.192c-0.015,-0.014 -0.019,-0.018 -0.034,-0.032l-1.414,-1.415c-0.015,-0.015 -0.019,-0.018 -0.033,-0.034c-0.216,-0.238 -0.308,-0.584 -0.234,-0.901c0.072,-0.306 0.296,-0.572 0.589,-0.695c0.109,-0.045 0.226,-0.071 0.344,-0.076c0.021,-0.001 0.026,-0.001 0.047,-0.001c0.008,0 0.016,0.001 0.024,0.001c0.02,0.001 0.026,0.001 0.047,0.002c0.235,0.018 0.459,0.123 0.63,0.29l0.707,0.707Z" style="fill:#76ff03;fill-rule:nonzero;"/><path d="M22.098,8.005c0.032,0.005 0.065,0.008 0.097,0.014c0.322,0.064 0.604,0.296 0.729,0.598c0.112,0.272 0.098,0.593 -0.042,0.854c-0.139,0.26 -0.398,0.452 -0.687,0.51c-0.086,0.017 -0.108,0.015 -0.195,0.019l-5,0c-0.033,-0.002 -0.065,-0.002 -0.098,-0.005c-0.39,-0.038 -0.743,-0.323 -0.859,-0.705c-0.104,-0.344 -0.007,-0.74 0.25,-0.997c0.139,-0.139 0.319,-0.235 0.512,-0.274c0.086,-0.017 0.108,-0.015 0.195,-0.019l5,0c0.033,0.002 0.065,0.003 0.098,0.005Z" style="fill-rule:nonzero;"/><path d="M22.098,8.005c0.032,0.005 0.065,0.008 0.097,0.014c0.322,0.064 0.604,0.296 0.729,0.598c0.112,0.272 0.098,0.593 -0.042,0.854c-0.139,0.26 -0.398,0.452 -0.687,0.51c-0.086,0.017 -0.108,0.015 -0.195,0.019l-5,0c-0.033,-0.002 -0.065,-0.002 -0.098,-0.005c-0.39,-0.038 -0.743,-0.323 -0.859,-0.705c-0.104,-0.344 -0.007,-0.74 0.25,-0.997c0.139,-0.139 0.319,-0.235 0.512,-0.274c0.086,-0.017 0.108,-0.015 0.195,-0.019l5,0c0.033,0.002 0.065,0.003 0.098,0.005Z" style="fill:#262626;fill-rule:nonzero;"/><path d="M22,26l-12,0c-0.087,-0.004 -0.109,-0.002 -0.195,-0.019c-0.289,-0.058 -0.548,-0.25 -0.687,-0.51c-0.138,-0.259 -0.155,-0.58 -0.042,-0.854c0.137,-0.33 0.462,-0.576 0.826,-0.612c0.033,-0.003 0.065,-0.003 0.098,-0.005l12,0c0.033,0.002 0.065,0.003 0.098,0.005c0.086,0.013 0.109,0.013 0.192,0.038c0.282,0.086 0.521,0.302 0.634,0.574c0.112,0.272 0.098,0.593 -0.042,0.854c-0.154,0.289 -0.456,0.492 -0.784,0.524c-0.033,0.003 -0.065,0.003 -0.098,0.005Zm0,-4l-12,0c-0.087,-0.004 -0.109,-0.002 -0.195,-0.019c-0.321,-0.064 -0.603,-0.294 -0.729,-0.598c-0.137,-0.332 -0.08,-0.736 0.151,-1.017c0.166,-0.203 0.414,-0.336 0.675,-0.361c0.033,-0.003 0.065,-0.003 0.098,-0.005l12,0c0.033,0.002 0.065,0.003 0.098,0.005c0.032,0.005 0.065,0.008 0.097,0.014c0.385,0.077 0.708,0.394 0.786,0.786c0.064,0.321 -0.042,0.671 -0.274,0.902c-0.139,0.139 -0.319,0.235 -0.512,0.274c-0.086,0.017 -0.108,0.015 -0.195,0.019Zm0,-4l-12,0c-0.087,-0.004 -0.109,-0.002 -0.195,-0.019c-0.352,-0.07 -0.656,-0.342 -0.762,-0.691c-0.113,-0.374 0.014,-0.81 0.323,-1.063c0.151,-0.125 0.34,-0.203 0.536,-0.222c0.033,-0.003 0.065,-0.003 0.098,-0.005l12,0c0.033,0.002 0.065,0.003 0.098,0.005c0.086,0.013 0.109,0.013 0.192,0.038c0.282,0.086 0.521,0.302 0.634,0.574c0.112,0.272 0.098,0.593 -0.042,0.854c-0.154,0.289 -0.456,0.492 -0.784,0.524c-0.033,0.003 -0.065,0.003 -0.098,0.005Zm0,-4l-12,0c-0.087,-0.004 -0.109,-0.002 -0.195,-0.019c-0.321,-0.064 -0.603,-0.294 -0.729,-0.598c-0.15,-0.362 -0.066,-0.808 0.217,-1.09c0.162,-0.162 0.38,-0.266 0.609,-0.288c0.033,-0.003 0.065,-0.003 0.098,-0.005l12,0c0.033,0.002 0.065,0.003 0.098,0.005c0.086,0.013 0.109,0.013 0.192,0.038c0.282,0.086 0.521,0.302 0.634,0.574c0.112,0.272 0.098,0.593 -0.042,0.854c-0.154,0.289 -0.456,0.492 -0.784,0.524c-0.033,0.003 -0.065,0.003 -0.098,0.005Z" style="fill:#262626;fill-rule:nonzero;"/><path d="M16,24l0,2l-6,0c-0.087,-0.004 -0.109,-0.002 -0.195,-0.019c-0.289,-0.058 -0.548,-0.25 -0.687,-0.51c-0.138,-0.259 -0.155,-0.58 -0.042,-0.854c0.137,-0.33 0.462,-0.576 0.826,-0.612c0.033,-0.003 0.065,-0.003 0.098,-0.005l6,0Zm0,-4l0,2l-6,0c-0.087,-0.004 -0.109,-0.002 -0.195,-0.019c-0.321,-0.064 -0.603,-0.294 -0.729,-0.598c-0.137,-0.332 -0.08,-0.736 0.151,-1.017c0.166,-0.203 0.414,-0.336 0.675,-0.361c0.033,-0.003 0.065,-0.003 0.098,-0.005l6,0Zm0,-4l0,2l-6,0c-0.087,-0.004 -0.109,-0.002 -0.195,-0.019c-0.352,-0.07 -0.656,-0.342 -0.762,-0.691c-0.113,-0.374 0.014,-0.81 0.323,-1.063c0.151,-0.125 0.34,-0.203 0.536,-0.222c0.033,-0.003 0.065,-0.003 0.098,-0.005l6,0Zm0,-4l0,2l-6,0c-0.087,-0.004 -0.109,-0.002 -0.195,-0.019c-0.321,-0.064 -0.603,-0.294 -0.729,-0.598c-0.15,-0.362 -0.066,-0.808 0.217,-1.09c0.162,-0.162 0.38,-0.266 0.609,-0.288c0.033,-0.003 0.065,-0.003 0.098,-0.005l6,0Z" style="fill:#4d4d4d;fill-rule:nonzero;"/></svg>