<?xml version="1.0" encoding="iso-8859-1"?>
<!-- Generator: Adobe Illustrator 19.0.0, SVG Export Plug-In . SVG Version: 6.00 Build 0)  -->
<svg version="1.1" id="Layer_1" xmlns="http://www.w3.org/2000/svg" xmlns:xlink="http://www.w3.org/1999/xlink" x="0px" y="0px"
	 viewBox="0 0 460 460" style="enable-background:new 0 0 460 460;" xml:space="preserve">
<g id="XMLID_1245_">
	<polygon id="XMLID_1246_" style="fill:#BEC8D6;" points="230,35 178.205,247.5 230,460 388.205,460 388.205,35 	"/>
	<polygon id="XMLID_1247_" style="fill:#3897FF;" points="358.205,125 358.205,430 210,315 230,125 	"/>
	<polygon id="XMLID_1248_" style="fill:#8799B3;" points="230,0 210,32.5 230,65 260,65 260,0 	"/>
	<rect id="XMLID_1249_" x="71.795" y="35" style="fill:#DAE0E7;" width="158.205" height="425"/>
	<polygon id="XMLID_1250_" style="fill:#8BC0FF;" points="230,315 101.795,430 101.795,125 230,125 	"/>
	<rect id="XMLID_1251_" x="200" style="fill:#A3B1C4;" width="30" height="65"/>
	<path id="XMLID_1252_" style="fill:#121923;" d="M358.205,430H230l-20-78.275L286.725,315
		C329.079,335.921,358.205,379.557,358.205,430z"/>
	<path id="XMLID_1253_" style="fill:#233145;" d="M230,351.725V430H101.795c0-50.443,29.126-94.079,71.48-115L230,351.725z"/>
	<polygon id="XMLID_1254_" style="fill:#DAE0E7;" points="230,371.725 286.725,315 230,315 220,343.362 	"/>
	<polygon id="XMLID_1255_" style="fill:#FFFFFF;" points="173.275,315 230,371.725 230,315 	"/>
	<path id="XMLID_1256_" style="fill:#121923;" d="M230,155c35.9,0,65,29.1,65,65s-29.1,65-65,65l-20-65L230,155z"/>
	<path id="XMLID_1257_" style="fill:#233145;" d="M230,155v130c-35.9,0-65-29.1-65-65S194.1,155,230,155z"/>
</g>
<g>
</g>
<g>
</g>
<g>
</g>
<g>
</g>
<g>
</g>
<g>
</g>
<g>
</g>
<g>
</g>
<g>
</g>
<g>
</g>
<g>
</g>
<g>
</g>
<g>
</g>
<g>
</g>
<g>
</g>
</svg>
