<?xml version="1.0" encoding="iso-8859-1"?>
<!-- Generator: Adobe Illustrator 19.0.0, SVG Export Plug-In . SVG Version: 6.00 Build 0)  -->
<svg version="1.1" id="Layer_1" xmlns="http://www.w3.org/2000/svg" xmlns:xlink="http://www.w3.org/1999/xlink" x="0px" y="0px"
	 viewBox="0 0 461.664 461.664" style="enable-background:new 0 0 461.664 461.664;" xml:space="preserve">
<g id="XMLID_1304_">
	<polyline id="XMLID_1305_" style="fill:#DAE0E7;" points="400.235,71.664 430.832,266.664 400.235,461.664 230.832,461.664 	"/>
	<polyline id="XMLID_1306_" style="fill:#DAE0E7;" points="230.832,461.664 210.832,71.664 400.235,71.664 	"/>
	<polygon id="XMLID_1307_" style="fill:#FFFFFF;" points="230.832,71.664 230.832,461.664 61.429,461.664 30.832,266.664 
		61.429,71.664 	"/>
	<polygon id="XMLID_1308_" style="fill:#233145;" points="210.832,89.252 230.832,0 400.235,0 289.843,89.252 	"/>
	<polygon id="XMLID_1309_" style="fill:#466289;" points="230.832,89.252 230.832,0 61.429,0 171.821,89.252 	"/>
	<polygon id="XMLID_1310_" style="fill:#2D79CC;" points="259.843,174.076 300.381,397.809 230.832,461.664 200.832,299.835 
		230.832,154.076 	"/>
	<polygon id="XMLID_1311_" style="fill:#3897FF;" points="201.821,174.076 161.283,397.809 230.832,461.664 230.832,154.076 	"/>
	<polygon id="XMLID_1312_" style="fill:#3897FF;" points="230.832,79.252 279.843,79.252 293.228,126.664 259.843,174.076 
		230.832,174.076 220.832,126.664 	"/>
	<polygon id="XMLID_1313_" style="fill:#8BC0FF;" points="230.832,79.252 181.821,79.252 168.435,126.664 201.821,174.076 
		230.832,174.076 	"/>
	<polygon id="XMLID_1314_" style="fill:#DAE0E7;" points="61.429,0 61.429,71.664 150.832,151.664 201.821,79.252 	"/>
	<polygon id="XMLID_1315_" style="fill:#BEC8D6;" points="400.235,0 400.235,71.664 310.832,151.664 259.843,79.252 	"/>
	<polygon id="XMLID_1316_" style="fill:#466289;" points="61.429,461.664 0.832,461.664 0.832,105.871 61.429,71.664 	"/>
	<polygon id="XMLID_1317_" style="fill:#233145;" points="400.235,461.664 460.832,461.664 460.832,105.871 400.235,71.664 	"/>
</g>
<g>
</g>
<g>
</g>
<g>
</g>
<g>
</g>
<g>
</g>
<g>
</g>
<g>
</g>
<g>
</g>
<g>
</g>
<g>
</g>
<g>
</g>
<g>
</g>
<g>
</g>
<g>
</g>
<g>
</g>
</svg>
